<?xml version="1.0" standalone="no"?>
<!DOCTYPE svg PUBLIC "-//W3C//DTD SVG 20010904//EN"
 "http://www.w3.org/TR/2001/REC-SVG-20010904/DTD/svg10.dtd">
<svg version="1.0" xmlns="http://www.w3.org/2000/svg"
 width="1024.000000pt" height="1024.000000pt" viewBox="0 0 1024.000000 1024.000000"
 preserveAspectRatio="xMidYMid meet">

<g transform="translate(0.000000,1024.000000) scale(0.100000,-0.100000)"
fill="#000000" stroke="none">
<path d="M4335 7381 c-434 -290 -1203 -803 -1708 -1141 -505 -338 -926 -620
-935 -625 -55 -33 -501 -336 -506 -343 -11 -18 37 -21 343 -21 354 0 298 -15
536 144 88 60 814 544 1612 1077 l1452 969 188 -127 c104 -70 244 -166 313
-212 131 -90 1033 -696 1645 -1107 620 -416 1079 -722 1102 -734 26 -13 669
-16 677 -2 9 14 59 -20 -749 523 -176 118 -675 452 -1110 743 -434 291 -1073
718 -1420 950 -346 232 -634 424 -640 427 -5 3 -365 -231 -800 -521z"/>
<path d="M4622 6522 c-9 -7 -12 -57 -10 -218 l3 -209 221 -3 221 -2 7 31 c8
40 8 372 0 393 -5 14 -34 16 -218 16 -116 0 -217 -4 -224 -8z"/>
<path d="M5193 6523 c-10 -3 -13 -57 -13 -219 l0 -214 225 0 225 0 -2 218 -3
217 -210 2 c-115 1 -216 -1 -222 -4z"/>
<path d="M4622 5958 c-17 -17 -17 -409 0 -426 9 -9 72 -12 224 -12 l212 0 6
31 c8 40 8 382 0 403 -5 14 -34 16 -218 16 -152 0 -215 -3 -224 -12z"/>
<path d="M5180 5745 l0 -225 225 0 225 0 0 225 0 225 -225 0 -225 0 0 -225z"/>
<path d="M6045 4679 c-99 -11 -205 -67 -262 -136 -53 -66 -74 -134 -74 -242 0
-98 21 -152 79 -202 48 -43 97 -63 272 -113 173 -50 238 -81 264 -126 40 -68
16 -160 -54 -202 -43 -25 -139 -34 -198 -18 -58 15 -126 79 -148 138 -10 26
-23 50 -28 54 -6 4 -55 8 -110 8 l-99 0 5 -64 c7 -77 42 -160 90 -208 40 -39
138 -90 213 -109 62 -16 227 -16 280 0 132 40 217 108 261 208 20 45 24 70 24
159 0 92 -3 112 -26 159 -50 107 -113 141 -394 216 -187 49 -226 84 -201 177
7 26 17 53 24 61 19 22 109 61 143 61 77 0 165 -53 196 -118 13 -27 14 -27
126 -30 104 -2 112 -1 112 16 0 26 -17 78 -43 132 -67 137 -238 204 -452 179z"/>
<path d="M720 4076 c0 -489 2 -585 14 -595 8 -7 53 -15 102 -18 77 -5 88 -4
100 12 11 15 14 72 14 252 l0 233 215 0 215 0 0 100 0 100 -215 0 -215 0 0
150 0 150 255 0 255 0 0 100 0 100 -370 0 -370 0 0 -584z"/>
<path d="M4777 4653 c-4 -3 -7 -53 -7 -110 l0 -103 115 0 115 0 0 110 0 110
-108 0 c-60 0 -112 -3 -115 -7z"/>
<path d="M5216 4477 c-4 -41 -4 -81 0 -90 3 -10 3 -28 0 -42 -6 -23 -11 -25
-62 -25 l-55 0 3 -92 3 -93 55 -5 55 -5 0 -260 c0 -237 2 -263 19 -295 46 -85
135 -125 276 -125 122 0 120 -1 120 98 l0 84 -66 6 c-83 6 -116 29 -126 83 -4
21 -7 123 -7 227 l-1 187 74 0 c109 0 106 -3 106 101 l0 88 -87 3 -88 3 -3
113 -3 112 -103 0 -103 0 -7 -73z"/>
<path d="M6720 4435 l0 -115 -50 0 -51 0 3 -92 3 -93 47 -3 46 -3 4 -252 c3
-214 6 -258 21 -292 43 -95 125 -137 275 -139 117 -1 124 6 120 109 l-3 70
-64 7 c-74 8 -105 31 -121 87 -5 20 -10 120 -10 224 l0 187 79 0 c104 0 111 7
111 111 l0 79 -89 0 -88 0 -7 31 c-3 17 -6 69 -6 115 l0 84 -110 0 -110 0 0
-115z"/>
<path d="M1703 4321 c-112 -38 -176 -108 -189 -204 l-7 -47 84 0 c106 0 120 4
141 40 33 58 150 77 215 34 28 -18 69 -102 56 -114 -11 -10 -132 -40 -213 -52
-36 -5 -79 -12 -97 -15 -17 -3 -60 -19 -94 -36 -84 -42 -123 -94 -138 -181
-15 -84 -6 -137 33 -194 52 -77 128 -106 262 -100 73 3 99 8 147 32 31 16 68
41 82 57 l24 29 3 -47 3 -48 83 -9 c59 -6 90 -5 108 3 l26 11 -4 313 c-3 297
-5 315 -26 369 -30 75 -90 128 -177 156 -85 28 -244 30 -322 3z m307 -491 c0
-167 -254 -287 -321 -152 -21 40 -10 99 21 124 34 27 173 61 273 67 25 1 27
-2 27 -39z"/>
<path d="M3434 4326 c-198 -65 -306 -239 -290 -468 18 -265 176 -412 441 -411
111 1 185 22 261 74 111 76 174 207 174 362 0 196 -86 348 -238 420 -62 30
-75 32 -187 34 -78 1 -134 -3 -161 -11z m251 -207 c40 -28 82 -90 96 -144 6
-22 9 -71 7 -110 -5 -94 -36 -158 -95 -195 -156 -99 -323 17 -323 225 0 115
47 202 130 240 49 22 141 14 185 -16z"/>
<path d="M4482 4325 c-38 -17 -73 -52 -114 -115 l-30 -45 7 78 7 77 -111 0
-111 0 0 -420 c0 -404 1 -420 19 -430 21 -11 169 -14 195 -4 14 5 16 36 16
235 0 126 4 237 9 247 5 9 15 30 22 45 19 40 75 95 114 111 18 8 59 18 90 21
l56 7 -3 102 -3 101 -65 2 c-40 2 -78 -3 -98 -12z"/>
<path d="M7580 4321 c-19 -11 -55 -45 -79 -77 l-44 -59 6 68 6 68 -112 -3
-112 -3 -3 -417 c-3 -486 -16 -441 126 -436 l87 3 0 200 c0 205 5 254 32 315
40 88 93 126 203 144 l65 11 0 100 0 100 -70 2 c-53 2 -79 -2 -105 -16z"/>
<path d="M8087 4319 c-76 -26 -122 -56 -174 -112 -52 -56 -79 -108 -98 -189
-39 -168 3 -346 109 -456 150 -158 468 -160 629 -4 48 47 90 120 112 196 21
71 16 223 -9 302 -40 127 -147 232 -271 269 -77 22 -225 19 -298 -6z m238
-188 c84 -39 129 -124 130 -242 0 -64 -4 -84 -30 -134 -43 -85 -96 -120 -178
-120 -90 1 -146 35 -187 116 -43 82 -34 240 18 314 53 77 161 106 247 66z"/>
<path d="M2270 4317 c0 -5 86 -257 113 -332 14 -38 58 -164 97 -280 40 -115
79 -218 88 -228 14 -15 31 -17 141 -15 l125 3 17 50 c10 28 39 109 64 180 105
294 214 611 215 623 0 1 -55 1 -122 0 l-123 -3 -90 -317 c-78 -277 -105 -354
-105 -306 0 7 -9 42 -20 78 -43 141 -121 408 -137 465 -8 33 -20 66 -25 73 -7
8 -45 12 -124 12 -63 0 -114 -1 -114 -3z"/>
<path d="M4772 3893 l3 -428 94 -3 c60 -2 98 1 107 9 12 9 14 84 14 430 l0
419 -110 0 -110 0 2 -427z"/>
<path d="M8680 4316 c0 -6 129 -345 145 -381 7 -16 30 -75 50 -130 20 -55 59
-157 85 -226 45 -115 48 -130 39 -164 -22 -80 -69 -115 -152 -115 -25 0 -49
-4 -52 -10 -12 -19 -33 -165 -26 -173 14 -14 204 -9 240 6 43 18 118 91 142
138 20 40 61 145 85 219 8 25 19 54 24 65 4 11 11 29 13 40 5 19 29 86 98 268
18 45 45 120 61 167 15 46 44 124 63 172 53 133 56 128 -79 128 l-113 0 -16
-52 c-64 -223 -161 -534 -167 -541 -4 -5 -24 45 -44 110 -21 65 -52 163 -70
218 -46 139 -76 238 -76 253 0 9 -33 12 -125 12 -69 0 -125 -2 -125 -4z"/>
</g>
</svg>
